<svg xmlns="http://www.w3.org/2000/svg" viewBox="0 0 530 800" width="530" height="800">
  <rect width="530" height="800" fill="white"/>
  <rect x="50" y="50" width="430" height="700" fill="none" stroke="#1a1a1a" stroke-width="3.0"/>
  <rect x="50" y="750" width="430" height="21" fill="none" stroke="#333" stroke-width="1.5"/>
  <rect x="58" y="58" width="9" height="684" fill="none" stroke="#444" stroke-width="1.2"/>
  <text x="62" y="796" text-anchor="middle" font-family="Arial,sans-serif" font-size="9" fill="#888">S1 5.9%</text>
  <line x1="75" y1="50" x2="75" y2="750" stroke="#1a1a1a" stroke-width="2.0" stroke-linecap="round"/>
  <rect x="83" y="58" width="28" height="684" fill="none" stroke="#444" stroke-width="1.2"/>
  <text x="97" y="796" text-anchor="middle" font-family="Arial,sans-serif" font-size="9" fill="#888">S2 10.2%</text>
  <line x1="119" y1="50" x2="119" y2="750" stroke="#1a1a1a" stroke-width="2.0" stroke-linecap="round"/>
  <line x1="119" y1="400" x2="293" y2="400" stroke="#444" stroke-width="1.5" stroke-linecap="round"/>
  <line x1="177" y1="400" x2="177" y2="750" stroke="#666" stroke-width="1.2" stroke-linecap="round"/>
  <line x1="235" y1="400" x2="235" y2="750" stroke="#666" stroke-width="1.2" stroke-linecap="round"/>
  <text x="206" y="796" text-anchor="middle" font-family="Arial,sans-serif" font-size="9" fill="#888">S3 40.4%</text>
  <line x1="293" y1="50" x2="293" y2="750" stroke="#1a1a1a" stroke-width="2.0" stroke-linecap="round"/>
  <line x1="293" y1="470" x2="453" y2="470" stroke="#444" stroke-width="1.5" stroke-linecap="round"/>
  <text x="373" y="796" text-anchor="middle" font-family="Arial,sans-serif" font-size="9" fill="#888">S4 37.3%</text>
  <line x1="453" y1="50" x2="453" y2="750" stroke="#1a1a1a" stroke-width="2.0" stroke-linecap="round"/>
  <rect x="461" y="58" width="11" height="684" fill="none" stroke="#444" stroke-width="1.2"/>
  <text x="466" y="796" text-anchor="middle" font-family="Arial,sans-serif" font-size="9" fill="#888">S5 6.2%</text>
</svg>