<svg xmlns="http://www.w3.org/2000/svg" viewBox="0 0 960 279" width="960" height="279">
  <rect width="960" height="279" fill="white"/>
  <rect x="50" y="50" width="860" height="179" fill="none" stroke="#1a1a1a" stroke-width="3.0"/>
  <rect x="50" y="229" width="860" height="6" fill="none" stroke="#333" stroke-width="1.5"/>
  <line x1="68" y1="50" x2="68" y2="229" stroke="#1a1a1a" stroke-width="2.0" stroke-linecap="round"/>
  <rect x="76" y="58" width="74" height="163" fill="none" stroke="#444" stroke-width="1.2"/>
  <text x="113" y="275" text-anchor="middle" font-family="Arial,sans-serif" font-size="9" fill="#888">S2 10.5%</text>
  <line x1="158" y1="50" x2="158" y2="229" stroke="#1a1a1a" stroke-width="2.0" stroke-linecap="round"/>
  <rect x="166" y="58" width="57" height="163" fill="none" stroke="#444" stroke-width="1.2"/>
  <text x="194" y="275" text-anchor="middle" font-family="Arial,sans-serif" font-size="9" fill="#888">S3 8.4%</text>
  <line x1="231" y1="50" x2="231" y2="229" stroke="#1a1a1a" stroke-width="2.0" stroke-linecap="round"/>
  <line x1="231" y1="50" x2="363" y2="50" stroke="#444" stroke-width="1.5" stroke-linecap="round"/>
  <line x1="257" y1="50" x2="257" y2="229" stroke="#666" stroke-width="1.2" stroke-linecap="round"/>
  <line x1="284" y1="50" x2="284" y2="229" stroke="#666" stroke-width="1.2" stroke-linecap="round"/>
  <line x1="310" y1="50" x2="310" y2="229" stroke="#666" stroke-width="1.2" stroke-linecap="round"/>
  <line x1="336" y1="50" x2="336" y2="229" stroke="#666" stroke-width="1.2" stroke-linecap="round"/>
  <text x="297" y="275" text-anchor="middle" font-family="Arial,sans-serif" font-size="9" fill="#888">S4 15.4%</text>
  <line x1="363" y1="50" x2="363" y2="229" stroke="#1a1a1a" stroke-width="2.0" stroke-linecap="round"/>
  <line x1="363" y1="140" x2="489" y2="140" stroke="#444" stroke-width="1.5" stroke-linecap="round"/>
  <text x="426" y="275" text-anchor="middle" font-family="Arial,sans-serif" font-size="9" fill="#888">S5 14.6%</text>
  <line x1="489" y1="50" x2="489" y2="229" stroke="#1a1a1a" stroke-width="2.0" stroke-linecap="round"/>
  <line x1="489" y1="86" x2="602" y2="86" stroke="#444" stroke-width="1.5" stroke-linecap="round"/>
  <text x="545" y="275" text-anchor="middle" font-family="Arial,sans-serif" font-size="9" fill="#888">S6 13.2%</text>
  <line x1="602" y1="50" x2="602" y2="229" stroke="#1a1a1a" stroke-width="2.0" stroke-linecap="round"/>
  <rect x="610" y="58" width="85" height="163" fill="none" stroke="#444" stroke-width="1.2"/>
  <text x="652" y="275" text-anchor="middle" font-family="Arial,sans-serif" font-size="9" fill="#888">S7 11.7%</text>
  <line x1="703" y1="50" x2="703" y2="229" stroke="#1a1a1a" stroke-width="2.0" stroke-linecap="round"/>
  <rect x="711" y="58" width="82" height="163" fill="none" stroke="#444" stroke-width="1.2"/>
  <text x="752" y="275" text-anchor="middle" font-family="Arial,sans-serif" font-size="9" fill="#888">S8 11.4%</text>
  <line x1="801" y1="50" x2="801" y2="229" stroke="#1a1a1a" stroke-width="2.0" stroke-linecap="round"/>
  <rect x="809" y="58" width="29" height="163" fill="none" stroke="#444" stroke-width="1.2"/>
  <text x="823" y="275" text-anchor="middle" font-family="Arial,sans-serif" font-size="9" fill="#888">S9 5.3%</text>
  <line x1="846" y1="50" x2="846" y2="229" stroke="#1a1a1a" stroke-width="2.0" stroke-linecap="round"/>
  <rect x="854" y="58" width="28" height="163" fill="none" stroke="#444" stroke-width="1.2"/>
  <text x="868" y="275" text-anchor="middle" font-family="Arial,sans-serif" font-size="9" fill="#888">S10 5.1%</text>
</svg>